<svg width="508" height="128" viewBox="0 0 508 128" fill="none" xmlns="http://www.w3.org/2000/svg">
<path d="M29.9432 142.242L30.0358 142.268L104.626 163.347C112.52 150.744 122.846 131.015 118.729 115.65C110.951 86.6217 68.2367 95.8664 62.1592 73.1847C58.5467 59.703 73.651 41.0556 81.0817 39.0645C85.3902 37.9101 88.7011 41.3339 89.7917 45.404C89.7917 45.404 89.9529 46.0058 87.5187 46.658C83.2766 47.7947 81.5497 46.6999 77.4738 47.7921C72.735 49.0618 66.4971 61.9315 68.7585 70.371C72.9951 86.1821 115.341 81.6111 123.422 111.768C128.244 129.765 111.341 156.728 106.336 163.829L119.317 167.499C122.003 168.223 124.356 168.337 126.569 167.744C129.64 166.921 131.857 165.074 133.644 162.818L177.103 104.655C178.061 103.367 178.446 101.672 177.998 99.9994C177.938 99.7779 177.865 99.562 177.782 99.3521L143.606 18.7834L143.588 18.7883C143.536 18.6231 143.47 18.4673 143.388 18.3226C142.9 17.4506 141.865 16.9837 140.848 17.2437L140.846 17.2442L79.9114 33.2881C79.2019 33.4783 78.4787 33.2716 77.9838 32.8071C77.9817 32.8059 77.9775 32.8035 77.9754 32.8022C77.9424 32.7721 77.9097 32.7366 77.8808 32.7018L68.6975 23.3795C68.1437 22.7748 67.2795 22.4872 66.4271 22.7156C66.2194 22.7713 66.0288 22.8578 65.8543 22.9577L65.6772 23.0742L9.33283 60.4176C7.35283 61.6551 6.32483 64.0728 6.95828 66.4368L26.2256 138.39L26.2707 138.558L26.2736 138.556C26.807 140.387 28.2283 141.73 29.9432 142.242Z" fill="#F1F1F1"/>
<path d="M137.65 64.856H140.801V57.3667H146.449V54.5561H140.801V50.8581H146.449V48H137.626L137.65 64.856Z" fill="#3D4D89"/>
<path d="M120.785 62.1951C121.56 63.0913 122.52 63.8082 123.599 64.2921C124.679 64.7749 125.851 65.0169 127.032 64.9984C128.62 65.0292 130.183 64.6028 131.538 63.7714C132.903 62.9153 133.997 61.6849 134.688 60.2231C135.242 59.0899 135.514 57.8366 135.477 56.5732V55.9876H125.22V58.6949H131.617C131.248 59.5805 130.625 60.3366 129.828 60.8652C129.016 61.3926 128.068 61.6676 127.102 61.657C126.431 61.676 125.763 61.5541 125.14 61.301C124.519 61.0468 123.955 60.6668 123.487 60.1829C123 59.7035 122.617 59.1263 122.362 58.4904C122.107 57.8545 121.985 57.1722 122.005 56.4866C121.993 55.8133 122.112 55.1439 122.358 54.5175C122.604 53.8911 122.971 53.3195 123.439 52.8356C123.908 52.3578 124.466 51.979 125.084 51.7231C125.702 51.4672 126.363 51.3397 127.032 51.3476C127.76 51.3207 128.486 51.466 129.148 51.7734C129.81 52.0801 130.391 52.5389 130.845 53.1127H134.712C133.271 49.7646 130.774 48.0933 127.181 48.0933C126.073 48.057 124.97 48.2486 123.939 48.6565C122.908 49.0655 121.972 49.683 121.187 50.4686C120.359 51.2313 119.702 52.1606 119.256 53.1966C118.811 54.232 118.589 55.3501 118.603 56.4788C118.6 58.5893 119.377 60.6266 120.785 62.1951Z" fill="#3D4D89"/>
<path d="M115.181 48.7873C114.489 48.2961 113.204 48.0983 111.322 48.0983H107.257V64.9476H110.478V58.0993H111.668C113.199 58.1753 114.701 57.6662 115.874 56.6744C116.421 56.1452 116.843 55.4993 117.107 54.7857C117.374 54.0722 117.476 53.3072 117.411 52.5473C117.343 51.789 117.109 51.0537 116.723 50.3971C116.337 49.7411 115.81 49.1796 115.18 48.7554L115.181 48.7873ZM111.242 55.3434H110.407V50.909H111.242C113.078 50.909 114.024 51.6454 114.024 53.1262C114.024 54.6069 113.102 55.3434 111.267 55.3434H111.242Z" fill="#3D4D89"/>
<path d="M97.137 56.4436C96.142 57.0153 95.7703 57.9333 96.0819 58.9698L99.8631 56.6822C99.0366 55.7882 97.9141 55.9972 97.137 56.4436Z" fill="#3D4D89"/>
<path d="M98.2766 52.3573C94.8098 52.3573 92 55.1534 92 58.6033C92 62.0531 94.8098 64.8498 98.2766 64.8498C101.743 64.8498 104.554 62.0531 104.554 58.6033C104.554 55.1534 101.743 52.3573 98.2766 52.3573ZM100.689 62.2364C98.2659 63.6317 95.784 62.8684 94.551 60.7445C93.319 58.6189 93.9114 56.0927 96.1754 54.7919C98.3114 53.5654 100.852 54.2292 102.068 56.3235C102.226 56.5967 102.339 56.8543 102.435 57.1225L96.9385 60.3819C97.7432 61.1725 98.7685 61.1166 99.7494 60.5528C100.472 60.1388 100.874 59.5085 100.953 58.9112H102.87C102.789 60.3131 102.075 61.4402 100.689 62.2364Z" fill="#3D4D89"/>
<mask id="path-7-outside-1_930_756" maskUnits="userSpaceOnUse" x="153.92" y="48.2351" width="8.16081" height="16.5298" fill="black">
<rect fill="white" x="153.92" y="48.2351" width="8.16081" height="16.5298"/>
<path d="M161.152 64.3941L154.848 48.6059L161.152 64.3941Z"/>
</mask>
<path d="M161.152 64.3941L154.848 48.6059L161.152 64.3941Z" fill="#27BBCF"/>
<path d="M162.08 64.0233L155.777 48.2351L153.92 48.9767L160.223 64.7649L162.08 64.0233ZM153.92 48.9767L160.223 64.7649L162.08 64.0233L155.777 48.2351L153.92 48.9767Z" fill="#27BBCF" mask="url(#path-7-outside-1_930_756)"/>
<path d="M182.518 65.0001L181.414 61.993H174.448L173.322 65.0001H169L175.92 48.0001H180.242L187 65.0001H182.518ZM175.713 58.5978H180.173L177.966 52.5351L175.713 58.5978Z" fill="#3D4D89"/>
<path d="M198.614 52.0035C197.634 51.6757 196.813 51.5118 196.15 51.5118C195.625 51.5118 195.213 51.6096 194.912 51.8047C194.611 52.0002 194.461 52.2845 194.461 52.6592C194.461 53.0187 194.592 53.3186 194.854 53.5605C195.117 53.8029 195.44 53.9976 195.826 54.1459C196.212 54.2947 196.783 54.4857 197.539 54.7194C198.665 55.0477 199.594 55.3755 200.327 55.7033C201.06 56.0312 201.689 56.5344 202.213 57.2139C202.737 57.8926 203 58.7791 203 59.8715C203 60.9647 202.714 61.8972 202.144 62.67C201.573 63.4431 200.79 64.0248 199.795 64.4147C198.8 64.8046 197.693 65.0001 196.475 65.0001C195.132 65.0001 193.793 64.7618 192.459 64.2861C191.125 63.81 189.972 63.1584 189 62.3306L190.643 58.9821C191.461 59.7162 192.428 60.3168 193.547 60.7856C194.665 61.2539 195.656 61.4881 196.52 61.4881C197.153 61.4881 197.65 61.371 198.013 61.1368C198.376 60.903 198.557 60.5596 198.557 60.1065C198.557 59.7318 198.422 59.4196 198.152 59.1698C197.882 58.9204 197.543 58.7212 197.134 58.5729C196.725 58.425 196.151 58.2492 195.41 58.0462C194.299 57.734 193.381 57.4181 192.656 57.0977C191.931 56.778 191.311 56.2937 190.793 55.6458C190.277 54.9984 190.018 54.1353 190.018 53.0581C190.018 52.0434 190.284 51.1535 190.817 50.3886C191.349 49.6241 192.105 49.0346 193.085 48.6209C194.064 48.2072 195.202 48.0001 196.498 48.0001C197.67 48.0001 198.827 48.1677 199.969 48.5038C201.111 48.8398 202.113 49.288 202.977 49.85L201.38 53.2688C200.515 52.7529 199.594 52.3314 198.614 52.0035Z" fill="#3D4D89"/>
<path d="M222 48.0001L216.167 59.5679V65.0001H211.948V59.6891L206 48.0001H210.219L214.046 55.2997L217.781 48.0001H222Z" fill="#3D4D89"/>
<path d="M233.614 52.0035C232.634 51.6757 231.813 51.5118 231.15 51.5118C230.625 51.5118 230.213 51.6096 229.912 51.8047C229.611 52.0002 229.461 52.2845 229.461 52.6592C229.461 53.0187 229.592 53.3186 229.854 53.5605C230.117 53.8029 230.44 53.9976 230.826 54.1459C231.212 54.2947 231.783 54.4857 232.539 54.7194C233.665 55.0477 234.594 55.3755 235.327 55.7033C236.06 56.0312 236.689 56.5344 237.213 57.2139C237.737 57.8926 238 58.7791 238 59.8715C238 60.9647 237.714 61.8972 237.144 62.67C236.573 63.4431 235.79 64.0248 234.795 64.4147C233.8 64.8046 232.693 65.0001 231.475 65.0001C230.132 65.0001 228.793 64.7618 227.459 64.2861C226.125 63.81 224.972 63.1584 224 62.3306L225.643 58.9821C226.461 59.7162 227.428 60.3168 228.547 60.7856C229.665 61.2539 230.656 61.4881 231.52 61.4881C232.153 61.4881 232.65 61.371 233.013 61.1368C233.376 60.903 233.557 60.5596 233.557 60.1065C233.557 59.7318 233.422 59.4196 233.152 59.1698C232.882 58.9204 232.543 58.7212 232.134 58.5729C231.725 58.425 231.151 58.2492 230.41 58.0462C229.299 57.734 228.381 57.4181 227.656 57.0977C226.931 56.778 226.311 56.2937 225.793 55.6458C225.277 54.9984 225.018 54.1353 225.018 53.0581C225.018 52.0434 225.284 51.1535 225.817 50.3886C226.349 49.6241 227.105 49.0346 228.085 48.6209C229.064 48.2072 230.202 48.0001 231.498 48.0001C232.67 48.0001 233.827 48.1677 234.969 48.5038C236.111 48.8398 237.113 49.288 237.977 49.85L236.38 53.2688C235.516 52.7529 234.594 52.3314 233.614 52.0035Z" fill="#3D4D89"/>
<path d="M241.001 48.0001H255V51.662H250.108V65.0001H245.845V51.662H241L241.001 48.0001Z" fill="#3D4D89"/>
<path d="M259.001 48.0001H271.77V51.5408H263.225V54.7177H270.938V58.2341L263.225 58.2587V61.4595H272V65.0001H259V48.0001H259.001Z" fill="#3D4D89"/>
<path d="M288.071 48.0001H292V65.0001H288.302L280.953 54.8389V65.0001H277V48.0001H280.722L288.095 58.2341L288.071 48.0001Z" fill="#3D4D89"/>
<path d="M295 48.0001H310V51.662H304.759V65.0001H300.191V51.662H295V48.0001Z" fill="#3D4D89"/>
<path d="M324.001 48.0001H337L336.975 51.5408H328.54V55.3239H336.33V58.8646H328.54V65.0001H324V48.0001H324.001Z" fill="#3D4D89"/>
<path d="M351.517 65.0001L350.414 61.993H343.448L342.322 65.0001H338L344.92 48.0001H349.242L356 65.0001H351.517ZM344.713 58.5978H349.173L346.966 52.5351L344.713 58.5978Z" fill="#3D4D89"/>
<path d="M369.386 64.9997L367.112 60.2951H367.023H364.08V64.9997H360V48.0001H367.023C369.088 48.0001 370.69 48.5217 371.827 49.5645C372.964 50.6073 373.532 52.0742 373.532 53.9662C373.532 55.2434 373.295 56.347 372.819 57.2761C372.343 58.2062 371.652 58.9294 370.745 59.4468L374 65.0001L369.386 64.9997ZM364.08 56.7545H367.045C367.877 56.7545 368.52 56.5282 368.974 56.0755C369.427 55.6229 369.653 54.9681 369.653 54.1112C369.653 53.2867 369.427 52.6524 368.974 52.2074C368.52 51.7628 367.877 51.5407 367.045 51.5407H364.08V56.7545Z" fill="#3D4D89"/>
<path d="M378 48.0001H382.709L387.512 57.9431L392.291 48.0001H397V65.0001H393.167L393.143 54.2326L388.908 63.3021H386.116L381.857 54.2326V65.0001H378V48.0001Z" fill="#3D4D89"/>
<path d="M414.518 65.0001L413.414 61.993H406.449L405.322 65.0001H401L407.92 48.0001H412.242L419 65.0001H414.518ZM407.713 58.5978H412.173L409.966 52.5351L407.713 58.5978Z" fill="#3D4D89"/>
<path d="M431.721 52.233C431.007 51.8344 430.302 51.6353 429.604 51.6353C428.8 51.6353 428.067 51.8427 427.408 52.2569C426.747 52.6712 426.228 53.2417 425.849 53.9686C425.469 54.6955 425.279 55.5042 425.279 56.3952C425.279 57.2862 425.469 58.095 425.849 58.8219C426.228 59.5487 426.747 60.1193 427.408 60.5335C428.067 60.9478 428.8 61.1547 429.604 61.1547C430.256 61.1547 430.939 60.9832 431.653 60.6389C432.366 60.2954 433.003 59.8264 433.564 59.232L436 61.9289C435.135 62.8664 434.107 63.6134 432.915 64.1679C431.725 64.7225 430.544 65.0001 429.376 65.0001C427.798 65.0001 426.372 64.625 425.098 63.8746C423.822 63.1243 422.821 62.1004 422.093 60.803C421.364 59.506 421 58.0518 421 56.4413C421 54.8469 421.372 53.4091 422.115 52.1273C422.859 50.8459 423.88 49.8377 425.177 49.1022C426.474 48.3679 427.928 48.0001 429.536 48.0001C430.72 48.0001 431.888 48.2543 433.041 48.7624C434.194 49.2704 435.173 49.9623 435.978 50.8377L433.565 53.839C433.048 53.1677 432.434 52.6321 431.721 52.233Z" fill="#3D4D89"/>
<path d="M440.001 48.0001H452.769V51.5408H444.226V54.7177H451.938V58.2341L444.226 58.2587V61.4595H453V65.0001H440V48.0001H440.001Z" fill="#3D4D89"/>
<path d="M463.235 60.3335C463.849 60.9684 464.627 61.2854 465.571 61.2854C466.498 61.2854 467.249 60.9721 467.823 60.3451C468.397 59.7182 468.684 58.8731 468.684 57.8096V48.0001H473V57.8096C473 59.2541 472.697 60.5198 472.092 61.6071C471.487 62.6948 470.622 63.5319 469.498 64.1192C468.373 64.7061 467.056 65.0001 465.547 65.0001C464.038 65.0001 462.712 64.7061 461.573 64.1192C460.433 63.5323 459.553 62.6948 458.931 61.6071C458.31 60.5198 458 59.2541 458 57.8096V48.0001H462.316V57.8096C462.316 58.8568 462.623 59.6985 463.235 60.3335Z" fill="#3D4D89"/>
<path d="M476 48.0001H490V51.662H485.108V65.0001H480.845V51.662H476V48.0001Z" fill="#3D4D89"/>
<path d="M508 48.0001L502.167 59.5679V65.0001H497.949V59.6891L492 48.0001H496.219L500.047 55.2997L503.781 48.0001H508Z" fill="#3D4D89"/>
</svg>
