<svg width="94" height="94" viewBox="0 0 94 94" fill="none" xmlns="http://www.w3.org/2000/svg">
<g clip-path="url(#clip0_12_1319)">
<path d="M62.5562 65.424H65.3053V58.8368H70.2329V56.3648H65.3053V53.1124H70.2329V50.5986H62.5356L62.5562 65.424Z" fill="#190F5F"/>
<path d="M47.8419 63.0834C48.5179 63.8717 49.3556 64.5022 50.2973 64.9281C51.2393 65.3527 52.2613 65.5653 53.2926 65.5491C54.678 65.5763 56.0414 65.201 57.2231 64.4698C58.4145 63.7169 59.3689 62.6347 59.9719 61.3491C60.4555 60.3524 60.6921 59.2501 60.6598 58.1389V57.6239H51.7106V60.005H57.2916C56.9703 60.784 56.4265 61.4488 55.7308 61.9138C55.0229 62.3777 54.1955 62.6195 53.3528 62.6101C52.7669 62.6269 52.1844 62.5197 51.6411 62.2971C51.0987 62.0735 50.6074 61.7393 50.1983 61.3137C49.7735 60.892 49.4399 60.3844 49.2175 59.8251C48.9946 59.2658 48.8883 58.6658 48.9059 58.0628C48.8952 57.4706 48.999 56.8818 49.2141 56.3309C49.4286 55.78 49.7486 55.2772 50.1567 54.8517C50.5657 54.4314 51.0532 54.0982 51.5921 53.8731C52.1315 53.6481 52.7081 53.536 53.2916 53.5429C53.927 53.5193 54.5599 53.6471 55.1381 53.9174C55.7152 54.1872 56.2222 54.5907 56.618 55.0954H59.9926C58.735 52.1506 56.5563 50.6807 53.4219 50.6807C52.4553 50.6487 51.4926 50.8174 50.5927 51.1761C49.6937 51.5358 48.877 52.0789 48.1917 52.7698C47.4696 53.4407 46.8963 54.258 46.5073 55.1691C46.1193 56.0797 45.9254 57.0632 45.9371 58.0559C45.9356 59.9121 46.6136 61.7039 47.8419 63.0834Z" fill="#190F5F"/>
<path d="M42.9526 51.2911C42.3485 50.8591 41.2281 50.6851 39.5859 50.6851H36.039V65.5044H38.8496V59.4811H39.8872C41.2232 59.5479 42.5342 59.1002 43.5576 58.2279C44.0343 57.7625 44.4022 57.1944 44.6329 56.5668C44.8662 55.9392 44.9553 55.2664 44.898 54.598C44.8392 53.9312 44.6344 53.2844 44.2978 52.707C43.9613 52.13 43.5013 51.6361 42.9521 51.2631L42.9526 51.2911ZM39.5159 57.0573H38.7874V53.1571H39.5159C41.1179 53.1571 41.9434 53.8048 41.9434 55.1072C41.9434 56.4095 41.1385 57.0573 39.5379 57.0573H39.5159Z" fill="#190F5F"/>
<path d="M27.2099 58.0249C26.3418 58.5277 26.0174 59.3351 26.2894 60.2467L29.5884 58.2347C28.8673 57.449 27.8879 57.6328 27.2099 58.0249Z" fill="#190F5F"/>
<path d="M28.2039 54.4309C25.1792 54.4309 22.7277 56.8901 22.7277 59.9243C22.7277 62.9586 25.1792 65.4181 28.2039 65.4181C31.2286 65.4181 33.6811 62.9586 33.6811 59.9243C33.6811 56.8901 31.2286 54.4309 28.2039 54.4309ZM30.3085 63.1197C28.1946 64.3469 26.0292 63.6756 24.9534 61.8076C23.8785 59.9381 24.3953 57.7163 26.3707 56.5722C28.2343 55.4934 30.4512 56.0773 31.5118 57.9193C31.6494 58.1596 31.7479 58.3861 31.8322 58.622L27.0365 61.4886C27.7385 62.184 28.6331 62.1349 29.4889 61.639C30.119 61.2749 30.4698 60.7205 30.5388 60.1951H32.2113C32.1413 61.4282 31.5176 62.4195 30.3085 63.1197Z" fill="#190F5F"/>
<path d="M26.9977 30.4413L27.0213 30.4556L45.9866 41.8454C49.0872 38.9365 53.3822 34.2319 53.3822 29.6644C53.3822 21.034 40.9503 20.4237 40.9503 13.681C40.9503 9.6737 46.4799 5.62366 48.6708 5.62366C49.9411 5.62366 50.5995 6.81986 50.5995 8.02929C50.5995 8.02929 50.5995 8.20866 49.8818 8.20866C48.6311 8.20866 48.2368 7.77672 47.035 7.77672C45.6378 7.77672 42.9731 10.8827 42.9731 13.391C42.9731 18.0912 54.9592 19.971 54.9592 28.937C54.9592 34.2869 48.3219 40.5092 46.4216 42.1069L49.7221 44.0894C50.4075 44.4899 51.0463 44.6964 51.6989 44.6964C52.6043 44.6964 53.3504 44.3489 54.0084 43.8559L70.251 30.9534C70.6095 30.6674 70.8403 30.2261 70.8403 29.7288C70.8403 29.6629 70.8358 29.5976 70.828 29.5332L67.3656 4.64567H67.3604C67.3584 4.59554 67.3513 4.54787 67.3396 4.50167C67.2696 4.22351 67.0194 4.01711 66.7205 4.01318L48.7746 3.93454C48.5654 3.93454 48.3817 3.82397 48.2799 3.65786C48.2793 3.65687 48.2784 3.65589 48.2779 3.65589C48.271 3.64459 48.2646 3.63279 48.2592 3.6205L46.4202 0.35237C46.3123 0.143996 46.0958 0 45.8445 0C45.7833 0 45.7245 0.00982702 45.6691 0.024079L45.6118 0.0432463L27.3594 6.21437C26.7235 6.40997 26.2624 7.00417 26.2624 7.7069L26.259 29.0972V29.1474L26.26 29.1469C26.2717 29.6939 26.5642 30.1721 26.9977 30.4413Z" fill="#190F5F"/>
<path d="M2.48922 91.8432C2.72241 92.0908 3.01391 92.2146 3.36371 92.2146C3.70664 92.2146 3.98736 92.0928 4.20733 91.8477C4.4268 91.604 4.53654 91.2753 4.53654 90.8623V86.6207H6.67646V90.8623C6.67646 91.4957 6.54123 92.0474 6.27032 92.5187C5.99892 92.99 5.61336 93.355 5.11317 93.613C4.61248 93.871 4.029 94 3.36419 94C2.69204 94 2.1022 93.871 1.59465 93.613C1.08711 93.355 0.694692 92.99 0.416914 92.5187C0.139136 92.0474 0 91.4957 0 90.8623V86.6207H2.13992V90.8623C2.13943 91.2688 2.25603 91.5955 2.48922 91.8432Z" fill="#190F5F"/>
<path d="M14.2073 86.6207H16.162V93.8554H14.341L11.2855 89.8303V93.8554H9.32043V86.6207H11.1512L14.2068 90.6562L14.2073 86.6207Z" fill="#190F5F"/>
<path d="M18.9187 86.6207H21.0587V93.8554H18.9187V86.6207Z" fill="#190F5F"/>
<path d="M32.7046 86.6207H34.8965L32.4578 93.8554H30.2561L29.0422 89.2215L27.7865 93.8554H25.5951L23.1769 86.6207H25.4609L26.7572 91.6467L28.0432 86.6207H30.1317L31.428 91.6364L32.7046 86.6207Z" fill="#190F5F"/>
<path d="M37.0154 86.6207H42.9105V88.2718H39.1553V89.4076H42.5601V91.0581H39.1553V92.2036H43.0134V93.8548H37.0154V86.6207Z" fill="#190F5F"/>
<path d="M49.8136 93.8554L48.8569 91.9048H47.7252V93.8554H45.5852V86.6207H48.9494C49.9165 86.6207 50.6655 86.8443 51.1971 87.291C51.7287 87.7389 51.9947 88.3717 51.9947 89.1904C51.9947 89.7201 51.8899 90.1797 51.6807 90.568C51.471 90.957 51.1711 91.2643 50.7802 91.4918L52.2411 93.8554H49.8136ZM47.7252 90.253H48.9494C49.2713 90.253 49.5202 90.1674 49.6951 89.9956C49.8695 89.8231 49.9572 89.5761 49.9572 89.252C49.9572 88.9357 49.8695 88.6932 49.6951 88.5247C49.5202 88.3561 49.2713 88.2718 48.9494 88.2718H47.7252V90.253Z" fill="#190F5F"/>
<path d="M58.5071 88.3749C58.0476 88.2174 57.6703 88.1383 57.3749 88.1383C57.1898 88.1383 57.0438 88.1739 56.9375 88.2466C56.8312 88.3185 56.7783 88.4235 56.7783 88.561C56.7783 88.7542 56.8811 88.9039 57.0869 89.0102C57.2927 89.1172 57.6184 89.2319 58.0642 89.3558C58.5718 89.5003 58.9902 89.6468 59.3199 89.7946C59.6491 89.9431 59.9352 90.168 60.1786 90.4708C60.4221 90.7735 60.5441 91.1729 60.5441 91.6682C60.5441 92.1706 60.4114 92.5952 60.1478 92.9427C59.8837 93.2901 59.5266 93.5501 59.0774 93.7219C58.6281 93.8943 58.1259 93.9799 57.5704 93.9799C56.9532 93.9799 56.3344 93.8749 55.7132 93.6648C55.0925 93.4548 54.556 93.1683 54.1033 92.8033L54.9058 91.1729C55.2693 91.4899 55.7132 91.7563 56.2384 91.9728C56.763 92.1887 57.2138 92.2976 57.5914 92.2976C57.8247 92.2976 58.0064 92.2529 58.1368 92.1634C58.2671 92.074 58.3317 91.9469 58.3317 91.7822C58.3317 91.5826 58.2254 91.4289 58.0133 91.3226C57.8002 91.2157 57.4715 91.1042 57.0252 90.9868C56.525 90.8565 56.1095 90.7204 55.7803 90.5791C55.4511 90.4384 55.1664 90.2206 54.9264 89.9236C54.6863 89.628 54.5668 89.2391 54.5668 88.7574C54.5668 88.29 54.6902 87.8822 54.9371 87.5347C55.1841 87.1873 55.5319 86.9208 55.9816 86.7348C56.4304 86.5494 56.9536 86.4567 57.5503 86.4567C58.0917 86.4567 58.6306 86.5338 59.1655 86.6887C59.7005 86.8437 60.1669 87.0485 60.5647 87.3033L59.7726 88.9545C59.3885 88.7263 58.9662 88.5331 58.5071 88.3749Z" fill="#190F5F"/>
<path d="M69.5555 86.6207L66.9631 91.5644V93.8554H64.8231V91.6059L62.1796 86.6207H64.3195L65.8934 89.5723L67.4266 86.6207H69.5555Z" fill="#190F5F"/>
<path d="M71.0886 86.6207H77.4262V88.3334H75.3283V93.8548H73.1774V88.3334H71.0886V86.6207Z" fill="#190F5F"/>
<path d="M79.6381 86.6207H85.5335V88.2718H81.778V89.4076H85.1828V91.0581H81.778V92.2036H85.6366V93.8548H79.6381V86.6207Z" fill="#190F5F"/>
<path d="M87.6625 86.6207H94.0001V88.3334H91.9016V93.8548H89.7513V88.3334H87.6625V86.6207Z" fill="#190F5F"/>
<path d="M69.8984 75.4094H23.6693V76.1906H69.8984V75.4094Z" fill="#190F5F"/>
</g>
<defs>
<clipPath id="clip0_12_1319">
<rect width="94" height="94" fill="white"/>
</clipPath>
</defs>
</svg>
