<svg width="89" height="120" viewBox="0 0 89 120" fill="none" xmlns="http://www.w3.org/2000/svg">
<path d="M73.5009 119.768H78.5747V107.71H87.668V103.184H78.5747V97.23H87.668V92.6281H73.4629L73.5009 119.768Z" fill="#283474"/>
<path d="M46.3472 115.484C47.5948 116.927 49.1408 118.081 50.8785 118.86C52.6171 119.638 54.503 120.027 56.4061 119.997C58.9629 120.047 61.479 119.36 63.6597 118.022C65.8585 116.643 67.6196 114.662 68.7326 112.309C69.6249 110.484 70.0616 108.466 70.0019 106.432V105.489H53.4877V109.848H63.7872C63.1941 111.274 62.1905 112.491 60.9067 113.342C59.6003 114.192 58.0733 114.634 56.5182 114.617C55.437 114.648 54.362 114.452 53.3593 114.044C52.3585 113.635 51.4517 113.023 50.6968 112.244C49.9129 111.472 49.2972 110.543 48.8868 109.519C48.4754 108.495 48.2792 107.396 48.3118 106.293C48.2919 105.208 48.4836 104.131 48.8805 103.122C49.2764 102.113 49.8668 101.193 50.6199 100.414C51.3749 99.6448 52.2744 99.0348 53.2689 98.6227C54.2643 98.2107 55.3285 98.0055 56.4052 98.0181C57.5778 97.9749 58.7459 98.2089 59.8128 98.7037C60.8778 99.1976 61.8135 99.9363 62.544 100.86H68.7715C66.4507 95.4693 62.4301 92.7784 56.6457 92.7784C54.862 92.7199 53.0854 93.0285 51.4246 93.6852C49.7656 94.3438 48.2584 95.338 46.9936 96.6029C45.661 97.831 44.6032 99.3272 43.8853 100.995C43.1693 102.662 42.8113 104.463 42.833 106.28C42.8284 109.678 44.0806 112.958 46.3472 115.484Z" fill="#283474"/>
<path d="M37.3238 93.8958C36.209 93.105 34.1414 92.7865 31.1108 92.7865H24.5652V119.916H29.752V108.889H31.6669C34.1323 109.011 36.5517 108.192 38.4403 106.595C39.32 105.743 39.999 104.703 40.4248 103.554C40.8552 102.405 41.0197 101.173 40.9139 99.9498C40.8055 98.7289 40.4275 97.5449 39.8064 96.4878C39.1853 95.4316 38.3364 94.5274 37.3229 93.8445L37.3238 93.8958ZM30.9816 104.452H29.6372V97.3119H30.9816C33.9379 97.3119 35.4613 98.4977 35.4613 100.882C35.4613 103.266 33.9759 104.452 31.0222 104.452H30.9816Z" fill="#283474"/>
<path d="M8.27124 106.223C6.66918 107.144 6.07067 108.622 6.57244 110.291L12.6606 106.608C11.3298 105.168 9.52251 105.505 8.27124 106.223Z" fill="#283474"/>
<path d="M10.106 99.644C4.52409 99.644 0 104.146 0 109.701C0 115.255 4.52409 119.758 10.106 119.758C15.6879 119.758 20.2138 115.255 20.2138 109.701C20.2138 104.146 15.6879 99.644 10.106 99.644ZM13.99 115.55C10.0888 117.797 6.0927 116.568 4.10731 113.148C2.12372 109.726 3.07754 105.658 6.72286 103.564C10.162 101.589 14.2531 102.658 16.2104 106.03C16.4645 106.47 16.6462 106.885 16.8017 107.317L7.95152 112.564C9.24709 113.837 10.898 113.748 12.4774 112.84C13.6401 112.173 14.2874 111.158 14.4149 110.196H17.5015C17.3722 112.454 16.2213 114.268 13.99 115.55Z" fill="#283474"/>
<path d="M7.87973 55.7266L7.92313 55.7526L42.9225 76.6038C48.6445 71.2785 56.5707 62.6658 56.5707 54.3042C56.5707 38.5066 33.6284 37.3892 33.6284 25.0455C33.6284 17.7085 43.8329 10.2951 47.876 10.2951C50.2203 10.2951 51.4354 12.484 51.4354 14.6991C51.4354 14.6991 51.4354 15.0266 50.1109 15.0266C47.8028 15.0266 47.075 14.2357 44.8572 14.2357C42.2788 14.2357 37.3614 19.9218 37.3614 24.5146C37.3614 33.1192 59.481 36.5596 59.481 52.9717C59.481 62.7657 47.2323 74.1566 43.7253 77.0815L49.8162 80.7108C51.081 81.4441 52.26 81.8219 53.4642 81.8219C55.135 81.8219 56.5119 81.1859 57.7261 80.2835L87.7005 56.6631C88.3623 56.1395 88.7881 55.3316 88.7881 54.4211C88.7881 54.3006 88.78 54.1809 88.7664 54.063L82.3763 8.50383H82.3664C82.3627 8.41296 82.3501 8.32479 82.3284 8.24022C82.1991 7.731 81.7371 7.35313 81.1856 7.34684H81.1847L48.0677 7.20288C47.6816 7.20288 47.3426 6.99956 47.1546 6.69636C47.1536 6.69546 47.1518 6.69366 47.1509 6.69276C47.1383 6.67297 47.1265 6.65048 47.1166 6.62888L43.7226 0.64597C43.5237 0.263603 43.1241 0 42.6603 0C42.5473 0 42.4388 0.0179896 42.3366 0.0449802L42.2308 0.0800693L8.54695 11.3756C7.37344 11.7346 6.52269 12.8223 6.52269 14.1089L6.51636 53.265V53.3568L6.51816 53.3559C6.53986 54.3581 7.0787 55.2335 7.87973 55.7266Z" fill="#283474"/>
</svg>
