<svg width="50" height="50" viewBox="0 0 50 50" fill="none" xmlns="http://www.w3.org/2000/svg">
<path d="M23.4375 32.8125H37.5V15.625H12.5V39.0625H23.4375V32.8125Z" fill="#27BBCF" fill-opacity="0.14"/>
<path d="M42.1875 10.9375V39.0625C42.1875 39.9254 42.8871 40.625 43.75 40.625C44.6129 40.625 45.3125 39.9254 45.3125 39.0625V10.9375C45.3125 9.64308 44.3972 8.72779 44.3972 8.72779C43.4819 7.8125 42.1875 7.8125 42.1875 7.8125H7.8125C6.51808 7.8125 5.60279 8.72779 5.60279 8.72779C4.6875 9.64308 4.6875 10.9375 4.6875 10.9375V39.0625C4.6875 39.9254 5.38706 40.625 6.25 40.625C7.11294 40.625 7.8125 39.9254 7.8125 39.0625V10.9375H42.1875Z" fill="#3D4D89"/>
<path d="M3.125 40.625H46.875C47.7379 40.625 48.4375 39.9254 48.4375 39.0625C48.4375 38.1996 47.7379 37.5 46.875 37.5H3.125C2.26206 37.5 1.5625 38.1996 1.5625 39.0625C1.5625 39.9254 2.26206 40.625 3.125 40.625Z" fill="#3D4D89"/>
<path d="M35.9375 34.375V39.0625C35.9375 39.9254 36.6371 40.625 37.5 40.625C38.3629 40.625 39.0625 39.9254 39.0625 39.0625V32.8125C39.0625 31.9496 38.3629 31.25 37.5 31.25H23.4375C22.5746 31.25 21.875 31.9496 21.875 32.8125V39.0625C21.875 39.9254 22.5746 40.625 23.4375 40.625C24.3004 40.625 25 39.9254 25 39.0625V34.375H35.9375Z" fill="#3D4D89"/>
<path d="M35.9375 17.1875V26.5625C35.9375 27.4254 36.6371 28.125 37.5 28.125C38.3629 28.125 39.0625 27.4254 39.0625 26.5625V15.625C39.0625 14.7621 38.3629 14.0625 37.5 14.0625H12.5C11.6371 14.0625 10.9375 14.7621 10.9375 15.625V39.0625C10.9375 39.9254 11.6371 40.625 12.5 40.625C13.3629 40.625 14.0625 39.9254 14.0625 39.0625V17.1875H35.9375Z" fill="#3D4D89"/>
</svg>
