<svg width="50" height="50" viewBox="0 0 50 50" fill="none" xmlns="http://www.w3.org/2000/svg">
<path d="M14.0625 12.7734C11.0546 17.3045 8.59375 22.5002 8.59375 27.3437C8.59375 31.6951 10.3222 35.868 13.3991 38.9445C16.4757 42.0215 20.649 43.7499 25 43.7499C29.351 43.7499 33.5243 42.0215 36.6009 38.9445C39.6778 35.868 41.4062 31.6951 41.4062 27.3437C41.4062 17.1874 34.375 9.37492 28.672 3.69141L21.875 17.9687L14.0625 12.7734Z" fill="#27BBCF" fill-opacity="0.14"/>
<path d="M31.0734 33.4171C29.0895 35.401 26.3183 35.8395 26.3183 35.8395C25.909 35.9043 25.5422 36.129 25.2985 36.4642C25.1045 36.7312 25 37.0528 25 37.3828L25.0001 37.4009C25.001 37.4767 25.0074 37.5522 25.0192 37.627C25.1393 38.3862 25.7938 38.9453 26.5625 38.9453L26.5768 38.9452C26.6538 38.9445 26.7307 38.9381 26.8067 38.9261C30.581 38.3289 33.2831 35.6268 33.2831 35.6268C35.9851 32.9248 36.5824 29.1505 36.5824 29.1505C36.5951 29.0697 36.6016 28.988 36.6016 28.9063L36.601 28.8656C36.5814 28.1125 36.0273 27.4807 35.2833 27.363C35.2025 27.3502 35.1208 27.3438 35.0391 27.3438C35.0195 27.3438 35 27.3441 34.9805 27.3448C34.6706 27.3565 34.3713 27.46 34.1205 27.6423C33.7852 27.8859 33.5605 28.2527 33.4958 28.662C33.0573 31.4332 31.0734 33.4171 31.0734 33.4171Z" fill="#3D4D89"/>
<path fill-rule="evenodd" clip-rule="evenodd" d="M27.2611 3.01978L21.2391 15.6694L14.9277 11.4724C14.2092 10.9945 13.2393 11.1897 12.7614 11.9082L12.7607 11.9093C12.7607 11.9093 7.03125 20.5407 7.03125 27.3437C7.03125 27.3437 7.03125 30.918 8.39904 34.2201C8.39904 34.2201 9.76683 37.5222 12.2942 40.0496C12.2942 40.0496 14.8215 42.5769 18.1237 43.9447C18.1237 43.9447 21.4258 45.3125 25 45.3125C25 45.3125 28.5742 45.3125 31.8763 43.9447C31.8763 43.9447 35.1785 42.5769 37.7058 40.0496C37.7058 40.0496 40.2332 37.5222 41.601 34.2201C41.601 34.2201 42.9688 30.918 42.9688 27.3437C42.9688 27.3437 42.9688 20.1216 38.5008 13.0092C38.5008 13.0092 35.5975 8.38741 29.7748 2.58466C29.4813 2.29214 29.0836 2.1282 28.6692 2.12891C28.2548 2.12962 27.8576 2.29492 27.5651 2.58845C27.4401 2.71395 27.3372 2.85981 27.2611 3.01978ZM21.0098 19.2698L14.5188 14.9534C14.5188 14.9534 10.1563 21.9802 10.1562 27.3437C10.1562 27.3437 10.1562 30.2964 11.2862 33.0242C11.2862 33.0242 12.4161 35.7521 14.5039 37.8399C14.5039 37.8399 16.5917 39.9277 19.3195 41.0576C19.3195 41.0576 22.0474 42.1875 25 42.1875C25 42.1875 27.9526 42.1875 30.6805 41.0576C30.6805 41.0576 33.4083 39.9277 35.4961 37.8399C35.4961 37.8399 37.5839 35.7521 38.7138 33.0242C38.7138 33.0242 39.8437 30.2964 39.8438 27.3437C39.8438 27.3437 39.8438 21.0217 35.8546 14.6715C35.8546 14.6715 33.5332 10.976 29.1224 6.38018L23.2858 18.6404C22.9149 19.4195 21.9825 19.7505 21.2034 19.3795C21.1363 19.3476 21.0716 19.311 21.0098 19.2698Z" fill="#3D4D89"/>
</svg>
