<svg width="50" height="50" viewBox="0 0 50 50" fill="none" xmlns="http://www.w3.org/2000/svg">
<path d="M31.25 7.8125C32.2643 9.16481 32.8125 10.8095 32.8125 12.5V14.0625H17.1875V12.5C17.1875 10.8095 17.7357 9.16481 18.75 7.8125H10.9375C10.5232 7.8125 10.1257 7.9771 9.83276 8.27007C9.53979 8.56323 9.375 8.96053 9.375 9.375V42.1875C9.375 42.602 9.53979 42.9993 9.83276 43.2924C10.1257 43.5854 10.5232 43.75 10.9375 43.75H39.0625C39.4768 43.75 39.8743 43.5854 40.1672 43.2924C40.4602 42.9993 40.625 42.602 40.625 42.1875V9.375C40.625 8.96053 40.4602 8.56323 40.1672 8.27007C39.8743 7.9771 39.4768 7.8125 39.0625 7.8125H31.25Z" fill="#27BBCF" fill-opacity="0.14"/>
<path d="M18.75 31.25H31.25C32.1129 31.25 32.8125 30.5504 32.8125 29.6875C32.8125 28.8246 32.1129 28.125 31.25 28.125H18.75C17.8871 28.125 17.1875 28.8246 17.1875 29.6875C17.1875 30.5504 17.8871 31.25 18.75 31.25Z" fill="#3D4D89"/>
<path d="M18.75 25H31.25C32.1129 25 32.8125 24.3004 32.8125 23.4375C32.8125 22.5746 32.1129 21.875 31.25 21.875H18.75C17.8871 21.875 17.1875 22.5746 17.1875 23.4375C17.1875 24.3004 17.8871 25 18.75 25Z" fill="#3D4D89"/>
<path d="M10.9375 9.375H18.75C19.6129 9.375 20.3125 8.67544 20.3125 7.8125C20.3125 6.94956 19.6129 6.25 18.75 6.25H10.9375C9.64308 6.25 8.72779 7.16529 8.72779 7.16529C7.8125 8.08058 7.8125 9.375 7.8125 9.375V42.1875C7.8125 43.4819 8.72779 44.3972 8.72779 44.3972C9.64308 45.3125 10.9375 45.3125 10.9375 45.3125H39.0625C40.3569 45.3125 41.2722 44.3972 41.2722 44.3972C42.1875 43.4819 42.1875 42.1875 42.1875 42.1875V9.375C42.1875 8.08058 41.2722 7.16529 41.2722 7.16529C40.3569 6.25 39.0625 6.25 39.0625 6.25H31.25C30.3871 6.25 29.6875 6.94956 29.6875 7.8125C29.6875 8.67544 30.3871 9.375 31.25 9.375H39.0625V42.1875H10.9375V9.375Z" fill="#3D4D89"/>
<path fill-rule="evenodd" clip-rule="evenodd" d="M17.1875 15.625C16.3246 15.625 15.625 14.9254 15.625 14.0625V12.5C15.625 12.5 15.625 8.61675 18.3709 5.87087C18.3709 5.87087 21.1167 3.125 25 3.125C25 3.125 28.8833 3.125 31.6291 5.87087C31.6291 5.87087 34.375 8.61675 34.375 12.5V14.0625C34.375 14.9254 33.6754 15.625 32.8125 15.625H17.1875ZM29.4194 8.08058C29.4194 8.08058 31.25 9.91117 31.25 12.5H18.75C18.75 12.5 18.75 9.91117 20.5806 8.08058C20.5806 8.08058 22.4112 6.25 25 6.25C25 6.25 27.5888 6.25 29.4194 8.08058Z" fill="#3D4D89"/>
</svg>
