<svg width="302" height="69" viewBox="0 0 302 69" fill="none" xmlns="http://www.w3.org/2000/svg">
<path d="M8.29652 58.0759C7.82946 57.7641 6.96908 57.6052 5.71539 57.6052H3.01135V68.7972H5.13156V64.2556H5.92434C7.10428 64.2556 8.03226 63.9317 8.72056 63.296C9.38428 62.6847 9.72843 61.8718 9.72843 60.851C9.72843 59.6346 9.24908 58.7116 8.29037 58.0698M5.69081 62.428H5.12542V59.494H5.67237C6.90148 59.494 7.52218 59.983 7.52218 60.9549C7.52218 61.9268 6.91377 62.428 5.69081 62.428Z" fill="#002D74"/>
<path d="M24.1581 62.8987V64.708H28.4169C28.165 65.3192 27.7593 65.796 27.2185 66.1505C26.6777 66.5051 26.0755 66.6823 25.424 66.6823C24.4653 66.6823 23.6603 66.3523 23.0088 65.686C22.3574 65.0258 22.0317 64.2068 22.0317 63.2349C22.0317 62.263 22.3574 61.4745 23.0027 60.8021C23.648 60.1358 24.4346 59.7996 25.3626 59.7996C26.4196 59.7996 27.2677 60.1908 27.9007 60.9671H30.4818C29.5354 58.7361 27.87 57.6236 25.4855 57.6236C23.8877 57.6236 22.5602 58.1432 21.497 59.1884C20.3478 60.3131 19.7701 61.6395 19.7701 63.1676C19.7701 64.6958 20.2433 65.9549 21.1898 66.9941C22.3083 68.2288 23.6971 68.8462 25.3441 68.8462C26.4626 68.8462 27.4644 68.5711 28.3432 68.021C29.222 67.4708 29.9164 66.6884 30.4265 65.6738C30.7707 64.983 30.9489 64.1823 30.9489 63.2593C30.9489 63.2165 30.9489 63.1615 30.9489 63.0759C30.9489 62.9965 30.9304 62.9354 30.9304 62.8926H24.1519L24.1581 62.8987Z" fill="#002D74"/>
<path d="M42.1461 68.7728H44.254V63.7972H48.0151V61.9329H44.254V59.4695H48.0151V57.5685H42.1461V68.7728Z" fill="#002D74"/>
<path d="M50.8113 54.28H0V55.1297H50.8113V54.28Z" fill="#002D74"/>
<path d="M1.00791 35.8264L1.03249 35.8447L22.4927 48.6199L22.5112 48.5893C26.0387 45.313 30.9306 40.0012 30.9306 34.8484C30.9306 25.1234 16.802 24.4327 16.802 16.8409C16.802 12.3238 23.0888 7.76387 25.5778 7.76387C27.022 7.76387 27.7717 9.10862 27.7717 10.4778C27.7717 10.4778 27.7717 10.6795 26.9544 10.6795C25.5348 10.6795 25.0861 10.1905 23.7218 10.1905C22.1301 10.1905 19.1065 13.693 19.1065 16.517C19.1065 21.8165 32.7312 23.9314 32.7312 34.0354C32.7312 40.0868 25.1292 47.1284 23.0028 48.8949C22.9967 48.8949 22.9905 48.9071 22.9844 48.9132L26.9237 51.2604C27.7041 51.7128 28.4355 51.945 29.1791 51.945C30.2115 51.945 31.0596 51.5538 31.8155 50.9976L50.332 36.4132C50.7438 36.0892 51.0019 35.588 51.0019 35.0318C51.0019 34.9584 51.0019 34.8851 50.9896 34.8117L47.0442 6.68807H47.038C47.038 6.63306 47.0319 6.57805 47.0134 6.52303C46.9335 6.20518 46.6447 5.97291 46.3067 5.97291L25.8482 5.88122C25.6085 5.88122 25.3996 5.75286 25.2828 5.56948C25.2767 5.55726 25.2644 5.54503 25.2582 5.53281L23.1626 1.84086C23.0397 1.60247 22.7939 1.44354 22.5112 1.44354C22.4436 1.44354 22.376 1.44966 22.3084 1.46799L22.2469 1.49244L1.41966 8.44847C0.69449 8.67463 0.172119 9.3409 0.172119 10.1355V34.3105V34.3288V34.3655C0.18441 34.9829 0.516269 35.5269 1.01406 35.8264" fill="#002D74"/>
<path d="M96.3745 2.86165C97.4069 3.75407 97.9293 5.01936 97.9293 6.6514C97.9293 8.28344 97.4131 9.6832 96.3745 10.6245C95.342 11.572 93.8794 12.0426 91.9927 12.0426H88.7171V16.4314H85.8472V1.52301H91.9927C93.8794 1.52301 95.3359 1.96922 96.3745 2.86776M94.3403 8.83357C94.918 8.3629 95.2068 7.67219 95.2068 6.74309C95.2068 5.81399 94.918 5.15384 94.3403 4.6954C93.7626 4.24307 92.9268 4.01691 91.8452 4.01691H88.7171V9.5365H91.8452C92.933 9.5365 93.7626 9.30423 94.3403 8.83357Z" fill="#002D74"/>
<path d="M111.603 2.32984C112.826 2.99611 113.785 3.91298 114.485 5.08047C115.186 6.24796 115.536 7.5377 115.536 8.9558C115.536 10.3739 115.186 11.6759 114.485 12.8434C113.785 14.0108 112.826 14.9399 111.603 15.6245C110.38 16.3091 109.028 16.6453 107.547 16.6453C106.066 16.6453 104.708 16.303 103.491 15.6245C102.268 14.9461 101.309 14.017 100.609 12.8434C99.908 11.6697 99.5577 10.3739 99.5577 8.9558C99.5577 7.5377 99.908 6.24185 100.609 5.08047C101.309 3.91909 102.268 3.00222 103.491 2.32984C104.714 1.66358 106.066 1.32739 107.547 1.32739C109.028 1.32739 110.386 1.66358 111.603 2.32984ZM105.04 4.55479C104.253 5.00101 103.632 5.61226 103.177 6.38855C102.723 7.16483 102.495 8.02058 102.495 8.9558C102.495 9.89101 102.729 10.7529 103.19 11.5353C103.657 12.3177 104.278 12.935 105.052 13.3874C105.832 13.8397 106.674 14.0659 107.59 14.0659C108.506 14.0659 109.323 13.8397 110.097 13.3874C110.866 12.935 111.48 12.3116 111.929 11.5353C112.377 10.7529 112.605 9.89712 112.605 8.9558C112.605 8.01447 112.377 7.16483 111.929 6.38855C111.48 5.61226 110.866 5.00101 110.097 4.55479C109.323 4.10858 108.493 3.88242 107.59 3.88242C106.687 3.88242 105.826 4.10858 105.04 4.55479Z" fill="#002D74"/>
<path d="M118.486 1.52301H121.356V13.858H127.827V16.4314H118.486V1.52301Z" fill="#002D74"/>
<path d="M137.562 4.26753C136.757 4.0108 136.044 3.88244 135.429 3.88244C134.741 3.88244 134.2 4.0108 133.801 4.26753C133.401 4.52425 133.198 4.87878 133.198 5.3311C133.198 5.74675 133.34 6.08905 133.616 6.36412C133.893 6.63918 134.243 6.86534 134.667 7.0426C135.085 7.21987 135.663 7.41547 136.394 7.6294C137.408 7.92892 138.238 8.22843 138.889 8.52183C139.541 8.82134 140.094 9.26144 140.549 9.84213C141.003 10.4228 141.231 11.193 141.231 12.1404C141.231 13.0879 140.985 13.8397 140.493 14.5121C140.002 15.1845 139.326 15.704 138.459 16.0585C137.593 16.4131 136.603 16.5903 135.491 16.5903C134.323 16.5903 133.18 16.3764 132.062 15.9424C130.949 15.5084 129.978 14.9338 129.149 14.2065L130.347 11.7798C131.103 12.4766 131.957 13.0206 132.897 13.4179C133.838 13.8153 134.716 14.017 135.534 14.017C136.351 14.017 136.96 13.8642 137.42 13.5585C137.875 13.2529 138.109 12.8373 138.109 12.3116C138.109 11.8837 137.967 11.5353 137.691 11.2541C137.414 10.9791 137.058 10.7529 136.628 10.5817C136.198 10.4106 135.614 10.2211 134.87 10.0072C133.856 9.70765 133.026 9.42037 132.387 9.13308C131.742 8.8519 131.195 8.41792 130.74 7.84334C130.285 7.26877 130.052 6.51082 130.052 5.5756C130.052 4.70763 130.285 3.95579 130.746 3.30786C131.207 2.65994 131.865 2.15871 132.719 1.80419C133.567 1.44966 134.55 1.2724 135.663 1.2724C136.634 1.2724 137.593 1.41299 138.545 1.70028C139.492 1.98756 140.34 2.36654 141.083 2.84943L139.928 5.34333C139.154 4.87878 138.367 4.51203 137.562 4.2553" fill="#002D74"/>
<path d="M157.768 16.4314H154.321L149.607 10.0438L147.253 12.6233V16.4314H144.383V1.52301H147.253V8.95581L154.02 1.52301H157.406L151.641 7.825L157.768 16.4314Z" fill="#002D74"/>
<path d="M171.454 16.4314L170.127 13.2774H162.801L161.474 16.4314H158.493L165.069 1.51691H168.044L174.533 16.4314H171.448H171.454ZM163.828 10.8263H169.094L166.483 4.56093L163.828 10.8263Z" fill="#002D74"/>
<path d="M111.658 42.3423L109.065 37.9352C108.948 37.9474 108.77 37.9596 108.53 37.9596H105.144V42.3484H102.274V27.4339H108.53C110.472 27.4339 111.972 27.8801 113.029 28.7725C114.086 29.665 114.614 30.9303 114.614 32.5623C114.614 33.7237 114.362 34.72 113.852 35.5452C113.342 36.3704 112.605 36.9877 111.634 37.3973L114.934 42.3423H111.658ZM105.15 35.4413H108.536C109.618 35.4413 110.448 35.209 111.019 34.7383C111.591 34.2677 111.873 33.577 111.873 32.654C111.873 31.731 111.591 31.0647 111.019 30.6063C110.448 30.154 109.618 29.9278 108.536 29.9278H105.15V35.4474V35.4413Z" fill="#002D74"/>
<path d="M121.786 38.9804C122.456 39.6467 123.359 39.9829 124.484 39.9829C125.609 39.9829 126.5 39.6528 127.151 38.9804C127.803 38.3142 128.128 37.3912 128.128 36.2115V27.4339H130.998V36.2115C130.998 37.5012 130.734 38.632 130.205 39.5856C129.677 40.5452 128.921 41.2787 127.944 41.7922C126.967 42.3056 125.811 42.5562 124.484 42.5562C123.156 42.5562 121.977 42.2995 120.981 41.7922C119.985 41.2787 119.229 40.5452 118.701 39.5856C118.172 38.6259 117.908 37.5012 117.908 36.2115V27.4339H120.778V36.2115C120.778 37.3912 121.11 38.3142 121.786 38.9804Z" fill="#002D74"/>
<path d="M145.336 28.7725C146.368 29.665 146.891 30.9303 146.891 32.5623C146.891 34.1943 146.375 35.5941 145.336 36.5354C144.303 37.4829 142.841 37.9535 140.954 37.9535H137.679V42.3423H134.809V27.4278H140.954C142.841 27.4278 144.297 27.874 145.336 28.7725ZM143.302 34.7383C143.879 34.2677 144.168 33.577 144.168 32.654C144.168 31.731 143.879 31.0647 143.302 30.6063C142.724 30.154 141.888 29.9278 140.807 29.9278H137.679V35.4474H140.807C141.894 35.4474 142.724 35.2151 143.302 34.7445" fill="#002D74"/>
<path d="M159.802 42.3423L158.475 39.1883H151.15L149.822 42.3423H146.842L153.417 27.4278H156.392L162.881 42.3423H159.796H159.802ZM152.176 36.7371H157.443L154.831 30.4718L152.176 36.7371Z" fill="#002D74"/>
<path d="M85.8472 53.3387H96.1901L96.1717 55.8326H88.7171V59.8608H95.508V62.3486H88.7171V68.2533H85.8472V53.3387Z" fill="#002D74"/>
<path d="M109.213 68.2533L107.885 65.0992H100.56L99.2322 68.2533H96.2516L102.827 53.3387H105.802L112.291 68.2533H109.206H109.213ZM101.586 62.6481H106.853L104.241 56.3828L101.586 62.6481Z" fill="#002D74"/>
<path d="M123.925 68.2532L121.331 63.8461C121.215 63.8584 121.036 63.8706 120.797 63.8706H117.411V68.2594H114.541V53.3448H120.797C122.739 53.3448 124.238 53.7911 125.295 54.6835C126.352 55.5759 126.881 56.8412 126.881 58.4732C126.881 59.6346 126.629 60.631 126.119 61.4561C125.609 62.2813 124.871 62.8987 123.9 63.3082L127.2 68.2532H123.925ZM117.417 61.3522H120.803C121.885 61.3522 122.714 61.12 123.286 60.6493C123.857 60.1786 124.14 59.4879 124.14 58.5649C124.14 57.6419 123.857 56.9757 123.286 56.5172C122.714 56.0649 121.885 55.8388 120.803 55.8388H117.417V61.3583V61.3522Z" fill="#002D74"/>
<path d="M130.458 53.3387H133.739L138.705 62.9476L143.634 53.3387H146.909V68.2533H144.273V57.5564L139.608 66.719H137.765L133.076 57.5564V68.2533H130.458V53.3387Z" fill="#002D74"/>
<path d="M162.113 68.2533L160.786 65.0992H153.46L152.133 68.2533H149.152L155.728 53.3387H158.702L165.192 68.2533H162.107H162.113ZM154.487 62.6481H159.753L157.141 56.3828L154.487 62.6481Z" fill="#002D74"/>
<path d="M176.051 56.2177C175.332 55.8754 174.601 55.7043 173.857 55.7043C172.929 55.7043 172.081 55.9243 171.307 56.3644C170.539 56.8045 169.93 57.4096 169.488 58.1859C169.045 58.9561 168.824 59.8057 168.824 60.7287C168.824 61.6517 169.045 62.5014 169.488 63.2715C169.93 64.0478 170.539 64.653 171.307 65.1053C172.081 65.5515 172.929 65.7777 173.857 65.7777C174.57 65.7777 175.289 65.6187 176.008 65.307C176.727 64.9953 177.366 64.5613 177.926 64.0112L179.616 65.8877C178.829 66.6823 177.913 67.3119 176.875 67.7765C175.83 68.241 174.773 68.4672 173.704 68.4672C172.26 68.4672 170.938 68.1249 169.74 67.4464C168.541 66.7679 167.601 65.8388 166.913 64.6652C166.231 63.4916 165.887 62.1957 165.887 60.7776C165.887 59.3595 166.237 58.0637 166.937 56.9023C167.638 55.7409 168.591 54.8241 169.795 54.1517C171 53.4854 172.339 53.1492 173.808 53.1492C174.878 53.1492 175.928 53.3632 176.955 53.791C177.981 54.2189 178.86 54.8057 179.591 55.5576L177.92 57.648C177.391 57.0368 176.764 56.56 176.045 56.2177" fill="#002D74"/>
<path d="M182.4 53.3387H193.388V55.8326H185.27V59.5185H192.552V62.0124H185.27V65.7594H193.646V68.2533H182.4V53.3387Z" fill="#002D74"/>
<path d="M200.584 64.8853C201.254 65.5515 202.158 65.8877 203.282 65.8877C204.407 65.8877 205.298 65.5576 205.949 64.8853C206.601 64.219 206.926 63.296 206.926 62.1163V53.3387H209.796V62.1163C209.796 63.406 209.532 64.5369 209.004 65.4904C208.475 66.4501 207.719 67.1836 206.742 67.697C205.765 68.2105 204.61 68.4611 203.282 68.4611C201.955 68.4611 200.775 68.2044 199.779 67.697C198.784 67.1836 198.028 66.4501 197.499 65.4904C196.971 64.5307 196.706 63.406 196.706 62.1163V53.3387H199.576V62.1163C199.576 63.296 199.908 64.219 200.584 64.8853Z" fill="#002D74"/>
<path d="M211.935 53.3387H224.165V55.8754H219.494V68.2533H216.606V55.8754H211.935V53.3387Z" fill="#002D74"/>
<path d="M238.687 53.3387L233.223 63.3755V68.2533H230.353V63.4794L224.761 53.3387H227.674L231.767 60.3498L235.792 53.3387H238.687Z" fill="#002D74"/>
<path d="M249.386 56.2177C248.667 55.8754 247.936 55.7043 247.192 55.7043C246.264 55.7043 245.416 55.9243 244.642 56.3644C243.873 56.8045 243.265 57.4096 242.823 58.1859C242.38 58.9561 242.159 59.8057 242.159 60.7287C242.159 61.6517 242.38 62.5014 242.823 63.2715C243.265 64.0478 243.873 64.653 244.642 65.1053C245.416 65.5515 246.264 65.7777 247.192 65.7777C247.905 65.7777 248.624 65.6187 249.343 65.307C250.062 64.9953 250.701 64.5613 251.26 64.0112L252.95 65.8877C252.164 66.6823 251.248 67.3119 250.21 67.7765C249.165 68.241 248.108 68.4672 247.038 68.4672C245.594 68.4672 244.273 68.1249 243.075 67.4464C241.876 66.7679 240.936 65.8388 240.248 64.6652C239.565 63.4916 239.221 62.1957 239.221 60.7776C239.221 59.3595 239.572 58.0637 240.272 56.9023C240.973 55.7409 241.925 54.8241 243.13 54.1517C244.334 53.4854 245.674 53.1492 247.143 53.1492C248.212 53.1492 249.263 53.3632 250.289 53.791C251.316 54.2189 252.195 54.8057 252.926 55.5576L251.254 57.648C250.726 57.0368 250.099 56.56 249.38 56.2177" fill="#002D74"/>
<path d="M254.917 53.3387H267.343V55.3437L258.518 65.7594H267.448V68.2533H254.641V66.23L263.465 55.8326H254.899L254.917 53.3387Z" fill="#002D74"/>
<path d="M280.919 53.3387H283.703V68.2533H280.986L273.274 57.9843V68.2533H270.471V53.3387H273.188L280.919 63.6261V53.3387Z" fill="#002D74"/>
<path d="M298.913 68.2533L297.585 65.0992H290.26L288.932 68.2533H285.952L292.528 53.3387H295.502L301.992 68.2533H298.907H298.913ZM291.286 62.6481H296.553L293.941 56.3828L291.286 62.6481Z" fill="#002D74"/>
<path d="M92.6624 34.9279V37.0611H96.0179V39.0416C95.5017 39.3411 94.967 39.5734 94.4016 39.7323C93.8362 39.8973 93.3016 39.9768 92.7853 39.9768C91.8328 39.9768 90.9601 39.7506 90.1735 39.2983C89.3868 38.846 88.76 38.2286 88.2991 37.4462C87.832 36.6638 87.6046 35.8081 87.6046 34.8667C87.6046 33.9254 87.832 33.0941 88.2929 32.3117C88.7477 31.5293 89.3746 30.9181 90.1673 30.4718C90.9601 30.0256 91.8266 29.7995 92.7669 29.7995C93.5228 29.7995 94.2787 29.9462 95.0285 30.2457C95.7782 30.5452 96.4358 30.9608 97.0073 31.5049L98.6359 29.396C97.88 28.7298 96.9766 28.2041 95.938 27.819C94.8933 27.4339 93.8362 27.2444 92.7669 27.2444C91.2674 27.2444 89.8969 27.5806 88.6678 28.253C87.4326 28.9315 86.4554 29.8423 85.7425 31.0036C85.0297 32.1589 84.6732 33.4486 84.6732 34.8729C84.6732 36.2971 85.0235 37.5868 85.7241 38.7604C86.4247 39.934 87.3773 40.857 88.5818 41.5416C89.7863 42.2262 91.126 42.5624 92.5948 42.5624C93.6211 42.5624 94.672 42.379 95.7413 42.0184C96.8107 41.6577 97.7386 41.181 98.5253 40.6003V34.934H92.6624V34.9279Z" fill="#002D74"/>
<path d="M68.1233 68.8522V0.147705H67.269V68.8522" fill="#002D74"/>
</svg>
