<svg width="50" height="50" viewBox="0 0 50 50" fill="none" xmlns="http://www.w3.org/2000/svg">
<path d="M43.75 7.8125H35.9375C35.5231 7.8125 35.1257 7.97712 34.8326 8.27015C34.5396 8.56317 34.375 8.9606 34.375 9.375C34.375 9.7894 34.5396 10.1868 34.8326 10.4799C35.1257 10.7729 35.5231 10.9375 35.9375 10.9375H42.1875V17.1875C42.1875 17.6019 42.3521 17.9993 42.6451 18.2924C42.9382 18.5854 43.3356 18.75 43.75 18.75C44.1644 18.75 44.5618 18.5854 44.8549 18.2924C45.1479 17.9993 45.3125 17.6019 45.3125 17.1875V9.375C45.3125 8.9606 45.1479 8.56317 44.8549 8.27015C44.5618 7.97712 44.1644 7.8125 43.75 7.8125Z" fill="#3D4D89"/>
<path d="M14.0625 39.0625H7.8125V32.8125C7.8125 32.3981 7.64788 32.0007 7.35485 31.7076C7.06183 31.4146 6.6644 31.25 6.25 31.25C5.8356 31.25 5.43817 31.4146 5.14515 31.7076C4.85212 32.0007 4.6875 32.3981 4.6875 32.8125V40.625C4.6875 41.0394 4.85212 41.4368 5.14515 41.7299C5.43817 42.0229 5.8356 42.1875 6.25 42.1875H14.0625C14.4769 42.1875 14.8743 42.0229 15.1674 41.7299C15.4604 41.4368 15.625 41.0394 15.625 40.625C15.625 40.2106 15.4604 39.8132 15.1674 39.5201C14.8743 39.2271 14.4769 39.0625 14.0625 39.0625Z" fill="#3D4D89"/>
<path d="M43.75 31.25C43.3356 31.25 42.9382 31.4146 42.6451 31.7076C42.3521 32.0007 42.1875 32.3981 42.1875 32.8125V39.0625H35.9375C35.5231 39.0625 35.1257 39.2271 34.8326 39.5201C34.5396 39.8132 34.375 40.2106 34.375 40.625C34.375 41.0394 34.5396 41.4368 34.8326 41.7299C35.1257 42.0229 35.5231 42.1875 35.9375 42.1875H43.75C44.1644 42.1875 44.5618 42.0229 44.8549 41.7299C45.1479 41.4368 45.3125 41.0394 45.3125 40.625V32.8125C45.3125 32.3981 45.1479 32.0007 44.8549 31.7076C44.5618 31.4146 44.1644 31.25 43.75 31.25Z" fill="#3D4D89"/>
<path d="M6.25 18.75C6.6644 18.75 7.06183 18.5854 7.35485 18.2924C7.64788 17.9993 7.8125 17.6019 7.8125 17.1875V10.9375H14.0625C14.4769 10.9375 14.8743 10.7729 15.1674 10.4799C15.4604 10.1868 15.625 9.7894 15.625 9.375C15.625 8.9606 15.4604 8.56317 15.1674 8.27015C14.8743 7.97712 14.4769 7.8125 14.0625 7.8125H6.25C5.8356 7.8125 5.43817 7.97712 5.14515 8.27015C4.85212 8.56317 4.6875 8.9606 4.6875 9.375V17.1875C4.6875 17.6019 4.85212 17.9993 5.14515 18.2924C5.43817 18.5854 5.8356 18.75 6.25 18.75Z" fill="#3D4D89"/>
<path d="M15.625 15.625C15.2106 15.625 14.8132 15.7896 14.5201 16.0826C14.2271 16.3757 14.0625 16.7731 14.0625 17.1875V32.8125C14.0625 33.2269 14.2271 33.6243 14.5201 33.9174C14.8132 34.2104 15.2106 34.375 15.625 34.375C16.0394 34.375 16.4368 34.2104 16.7299 33.9174C17.0229 33.6243 17.1875 33.2269 17.1875 32.8125V17.1875C17.1875 16.7731 17.0229 16.3757 16.7299 16.0826C16.4368 15.7896 16.0394 15.625 15.625 15.625Z" fill="#3D4D89"/>
<path d="M35.9375 32.8125V17.1875C35.9375 16.7731 35.7729 16.3757 35.4799 16.0826C35.1868 15.7896 34.7894 15.625 34.375 15.625C33.9606 15.625 33.5632 15.7896 33.2701 16.0826C32.9771 16.3757 32.8125 16.7731 32.8125 17.1875V32.8125C32.8125 33.2269 32.9771 33.6243 33.2701 33.9174C33.5632 34.2104 33.9606 34.375 34.375 34.375C34.7894 34.375 35.1868 34.2104 35.4799 33.9174C35.7729 33.6243 35.9375 33.2269 35.9375 32.8125Z" fill="#3D4D89"/>
<path d="M28.125 15.625C27.7106 15.625 27.3132 15.7896 27.0201 16.0826C26.7271 16.3757 26.5625 16.7731 26.5625 17.1875V32.8125C26.5625 33.2269 26.7271 33.6243 27.0201 33.9174C27.3132 34.2104 27.7106 34.375 28.125 34.375C28.5394 34.375 28.9368 34.2104 29.2299 33.9174C29.5229 33.6243 29.6875 33.2269 29.6875 32.8125V17.1875C29.6875 16.7731 29.5229 16.3757 29.2299 16.0826C28.9368 15.7896 28.5394 15.625 28.125 15.625Z" fill="#3D4D89"/>
<path d="M21.875 15.625C21.4606 15.625 21.0632 15.7896 20.7701 16.0826C20.4771 16.3757 20.3125 16.7731 20.3125 17.1875V32.8125C20.3125 33.2269 20.4771 33.6243 20.7701 33.9174C21.0632 34.2104 21.4606 34.375 21.875 34.375C22.2894 34.375 22.6868 34.2104 22.9799 33.9174C23.2729 33.6243 23.4375 33.2269 23.4375 32.8125V17.1875C23.4375 16.7731 23.2729 16.3757 22.9799 16.0826C22.6868 15.7896 22.2894 15.625 21.875 15.625Z" fill="#3D4D89"/>
</svg>
